HIERARCHY
ROOT Hips
{
	OFFSET 0.000000 0.000000 0.000000
	CHANNELS 6 Xposition Yposition Zposition Xrotation Yrotation Zrotation
	JOINT LeftUpLeg_virtual
	{
		OFFSET 0.000000 0.000000 0.000000
		CHANNELS 3 Xrotation Yrotation Zrotation
		JOINT LeftUpLeg
		{
			OFFSET 11.394100 -6.187798 -0.413800
			CHANNELS 3 Xrotation Yrotation Zrotation
			JOINT LeftLeg
			{
				OFFSET 0.430247 -32.302673 3.732800
				CHANNELS 3 Xrotation Yrotation Zrotation
				JOINT LeftFoot
				{
					OFFSET -0.430247 -48.264931 -6.423300
					CHANNELS 3 Xrotation Yrotation Zrotation
					JOINT LeftToeBase
					{
						OFFSET 4.230900 -16.068199 23.438400
						CHANNELS 3 Xrotation Yrotation Zrotation
						JOINT LeftToe_End
						{
							OFFSET 4.510700 0.695400 19.974600
							CHANNELS 3 Xrotation Yrotation Zrotation
							End Site
							{
								OFFSET 0 0 0
							}
						}
					}
				}
			}
		}
	}
	JOINT RightUpLeg_virtual
	{
		OFFSET 0.000000 0.000000 0.000000
		CHANNELS 3 Xrotation Yrotation Zrotation
		JOINT RightUpLeg
		{
			OFFSET -11.333700 -6.187798 -0.413800
			CHANNELS 3 Xrotation Yrotation Zrotation
			JOINT RightLeg
			{
				OFFSET -0.430392 -32.302628 3.733000
				CHANNELS 3 Xrotation Yrotation Zrotation
				JOINT RightFoot
				{
					OFFSET 0.430392 -48.264973 -6.423500
					CHANNELS 3 Xrotation Yrotation Zrotation
					JOINT RightToeBase
					{
						OFFSET -4.230900 -16.068199 23.438400
						CHANNELS 3 Xrotation Yrotation Zrotation
						JOINT RightToe_End
						{
							OFFSET -4.510700 0.695400 19.974600
							CHANNELS 3 Xrotation Yrotation Zrotation
							End Site
							{
								OFFSET 0 0 0
							}
						}
					}
				}
			}
		}
	}
	JOINT Spine_virtual
	{
		OFFSET 0.000000 0.000000 0.000000
		CHANNELS 3 Xrotation Yrotation Zrotation
		JOINT Spine
		{
			OFFSET -0.002400 12.777504 0.315300
			CHANNELS 3 Xrotation Yrotation Zrotation
			JOINT Spine1
			{
				OFFSET -0.002067 5.816869 0.032633
				CHANNELS 3 Xrotation Yrotation Zrotation
				JOINT Spine1_split
				{
					OFFSET -0.002067 5.816869 0.032633
					CHANNELS 3 Xrotation Yrotation Zrotation
					JOINT Spine2
					{
						OFFSET -0.002067 5.816869 0.032633
						CHANNELS 3 Xrotation Yrotation Zrotation
						JOINT Neck_virtual
						{
							OFFSET 0.000000 0.000000 0.000000
							CHANNELS 3 Xrotation Yrotation Zrotation
							JOINT Neck
							{
								OFFSET -0.003700 21.199493 -0.826900
								CHANNELS 3 Xrotation Yrotation Zrotation
								JOINT Head
								{
									OFFSET 0.000000 20.442200 4.834800
									CHANNELS 3 Xrotation Yrotation Zrotation
									JOINT HeadTop_End
									{
										OFFSET 0.000000 34.668396 4.968400
										CHANNELS 3 Xrotation Yrotation Zrotation
										End Site
										{
											OFFSET 0 0 0
										}
									}
								}
							}
						}
						JOINT LeftShoulder_virtual
						{
							OFFSET 0.000000 0.000000 0.000000
							CHANNELS 3 Xrotation Yrotation Zrotation
							JOINT LeftShoulder
							{
								OFFSET 3.288150 8.794197 -1.372250
								CHANNELS 3 Xrotation Yrotation Zrotation
								JOINT LeftShoulder_split
								{
									OFFSET 3.288150 8.794197 -1.372250
									CHANNELS 3 Xrotation Yrotation Zrotation
									JOINT LeftArm
									{
										OFFSET 11.953299 -2.279007 -0.146200
										CHANNELS 3 Xrotation Yrotation Zrotation
										JOINT LeftForeArm
										{
											OFFSET 18.448900 0.000000 0.000000
											CHANNELS 3 Xrotation Yrotation Zrotation
											JOINT LeftHand
											{
												OFFSET 29.527798 0.000000 0.000000
												CHANNELS 3 Xrotation Yrotation Zrotation
												End Site
												{
													OFFSET 0 0 0
												}
											}
										}
									}
								}
							}
						}
						JOINT RightShoulder_virtual
						{
							OFFSET 0.000000 0.000000 0.000000
							CHANNELS 3 Xrotation Yrotation Zrotation
							JOINT RightShoulder
							{
								OFFSET -3.249400 8.794197 -1.372250
								CHANNELS 3 Xrotation Yrotation Zrotation
								JOINT RightShoulder_split
								{
									OFFSET -3.249400 8.794197 -1.372250
									CHANNELS 3 Xrotation Yrotation Zrotation
									JOINT RightArm
									{
										OFFSET -11.953299 -2.279007 -0.146200
										CHANNELS 3 Xrotation Yrotation Zrotation
										JOINT RightForeArm
										{
											OFFSET -18.448900 0.000000 0.000000
											CHANNELS 3 Xrotation Yrotation Zrotation
											JOINT RightHand
											{
												OFFSET -29.527802 0.000000 0.000000
												CHANNELS 3 Xrotation Yrotation Zrotation
												End Site
												{
													OFFSET 0 0 0
												}
											}
										}
									}
								}
							}
						}
					}
				}
			}
		}
	}
}
MOTION
Frames: 5
Frame Time: 0.03333333
1.714170 97.900299 6.681641 0.000000 0.000000 0.000000 -29.767406 -41.990531 -19.597109 -2.038462 11.348509 4.318581 32.830704 2.684885 -2.975710 -11.210597 5.084729 4.084654 -5.565604 0.386522 0.425743 0.000000 0.000000 0.000000 -27.321957 -39.216108 -18.119075 13.529525 -10.267431 -4.934189 18.949048 6.488794 -5.844272 -13.572688 -13.130360 5.981594 -3.044490 -0.065953 -0.688090 0.000000 0.000000 0.000000 -29.323314 -41.240720 -19.915889 10.902517 -4.601005 0.922792 3.188094 -1.352529 0.008663 0.596593 1.102147 0.133038 0.000000 0.000000 0.000000 3.559250 -2.168013 -0.012025 1.851577 1.905954 -3.395903 -6.729612 -1.281697 4.157844 0.000000 0.000000 0.000000 3.576303 -2.488776 0.156774 0.971474 -15.341074 -11.086150 0.699654 -1.205757 -0.481565 -20.973925 0.215830 -38.872283 2.268144 -67.599844 2.076933 0.000000 0.000000 0.000000 2.704660 -2.453998 0.082603 0.012719 11.393702 15.995231 1.719304 3.389952 -2.104584 -10.200525 -7.361126 62.185792 -0.223759 42.063566 1.180735 0.000000 0.000000 0.000000 
2.412830 97.857964 7.644173 0.000000 0.000000 0.000000 -30.691189 -44.291219 -21.182560 -0.752399 12.842575 4.636310 31.385262 2.834398 -4.795803 -12.292068 6.736769 7.736225 -5.489017 0.226992 0.816947 0.000000 0.000000 0.000000 -28.041953 -40.741631 -19.302074 12.859279 -10.373278 -5.557088 18.866909 6.805822 -6.751864 -12.060191 -12.809210 6.808924 -2.797199 -0.046186 -1.184829 0.000000 0.000000 0.000000 -30.327806 -42.924932 -21.261389 10.946083 -4.597720 0.796438 3.219739 -1.325669 -0.035200 0.546774 1.035009 0.142901 0.000000 0.000000 0.000000 3.503187 -2.145102 -0.018246 1.924083 1.876840 -3.369960 -6.591232 -1.088085 3.899001 0.000000 0.000000 0.000000 3.597193 -2.448644 0.149092 1.008737 -15.490435 -11.091972 0.628780 -1.172795 -0.479002 -20.823908 0.260366 -38.828082 2.277622 -67.690317 2.058690 0.000000 0.000000 0.000000 2.798959 -2.391452 0.061970 0.049571 11.342082 15.990429 1.660285 3.446658 -2.011431 -10.177416 -7.415775 62.333263 -0.181493 42.012979 1.149226 0.000000 0.000000 0.000000 
3.049077 97.803535 8.621799 0.000000 0.000000 0.000000 -31.982347 -46.556420 -22.929848 0.366757 13.679236 4.720461 30.207314 2.928704 -6.286453 -13.367827 8.489282 10.508056 -5.135046 0.148900 0.797598 0.000000 0.000000 0.000000 -28.941079 -42.232426 -20.510153 12.114800 -10.178364 -6.098816 19.021228 6.523590 -7.594321 -10.591615 -12.928571 6.959295 -2.573608 -0.014589 -1.180838 0.000000 0.000000 0.000000 -31.533402 -44.506080 -22.717213 10.944257 -4.556801 0.593863 3.266653 -1.305187 -0.044690 0.528130 0.958243 0.181262 0.000000 0.000000 0.000000 3.481410 -2.136173 -0.005222 2.031824 1.842899 -3.362613 -6.453713 -0.997957 3.700921 0.000000 0.000000 0.000000 3.677209 -2.429821 0.160275 1.071415 -15.588998 -11.007634 0.514508 -1.201506 -0.566686 -20.684765 0.279993 -38.842275 2.277170 -67.732698 2.050487 0.000000 0.000000 0.000000 2.931776 -2.344673 0.071510 0.072059 11.323549 16.002343 1.670269 3.492624 -1.911689 -10.069530 -7.483309 62.360597 -0.150969 42.227474 1.121330 0.000000 0.000000 0.000000 
3.596058 97.798180 9.560234 0.000000 0.000000 0.000000 -33.490617 -48.443257 -24.697503 1.196155 13.925048 4.607971 29.369885 2.963846 -7.335778 -14.195983 10.254381 12.283107 -4.434651 0.181767 0.329111 0.000000 0.000000 0.000000 -30.126534 -43.834211 -21.871362 11.329433 -9.647861 -6.421220 19.490843 5.623529 -8.349312 -9.216289 -13.413482 6.511466 -2.720362 0.022777 -0.784509 0.000000 0.000000 0.000000 -32.966137 -46.020684 -24.298982 10.895624 -4.475694 0.342327 3.326817 -1.308589 -0.015685 0.618857 0.857406 0.297592 0.000000 0.000000 0.000000 3.514774 -2.143011 0.034854 2.111931 1.790885 -3.350161 -6.416711 -1.019630 3.583697 0.000000 0.000000 0.000000 3.796962 -2.438147 0.190370 1.143118 -15.632809 -10.856207 0.416331 -1.261290 -0.705307 -20.657953 0.305556 -38.913650 2.300282 -67.804531 2.092982 0.000000 0.000000 0.000000 3.069004 -2.327396 0.108889 0.071302 11.329256 16.053832 1.733333 3.555188 -1.821836 -9.932985 -7.563252 62.231377 -0.150805 42.586393 1.108543 0.000000 0.000000 0.000000 
4.040052 97.857841 10.381725 0.000000 0.000000 0.000000 -35.141375 -49.961157 -26.501605 1.861526 13.937964 4.306339 28.756681 3.190792 -7.971757 -14.706120 11.952632 13.265897 -3.662435 0.308600 -0.432147 0.000000 0.000000 0.000000 -31.515364 -45.536810 -23.384575 10.482859 -8.830222 -6.435832 20.370746 4.287950 -8.979535 -8.210027 -14.060402 5.745168 -3.245955 0.079577 -0.298097 0.000000 0.000000 0.000000 -34.512177 -47.502596 -25.958677 10.838805 -4.359809 0.084313 3.372158 -1.329994 0.034412 0.697480 0.764452 0.404593 0.000000 0.000000 0.000000 3.600431 -2.162443 0.089650 2.113383 1.705799 -3.323959 -6.500703 -1.111664 3.559728 0.000000 0.000000 0.000000 3.918085 -2.459831 0.229328 1.202823 -15.622984 -10.696517 0.420300 -1.359778 -0.830186 -20.782457 0.326944 -39.038971 2.360746 -67.929961 2.201861 0.000000 0.000000 0.000000 3.179024 -2.339392 0.161272 0.044964 11.350137 16.163264 1.862341 3.682844 -1.760886 -9.830709 -7.634724 61.978270 -0.189992 42.945777 1.116959 0.000000 0.000000 0.000000 
